<svg width="60" height="54" viewBox="0 0 60 54" fill="none" xmlns="http://www.w3.org/2000/svg">
<rect width="60" height="53.4812" rx="8" fill="#C3937C"/>
<rect x="10" y="6.74072" width="40" height="40" rx="20" fill="#C3937C"/>
<path d="M31.2875 9.28822C30.8591 9.25659 30.4296 9.24075 30 9.24072V6.74072C30.4913 6.74096 30.9825 6.75931 31.4725 6.79572L31.2875 9.28822ZM36.2975 10.4132C35.4961 10.104 34.6731 9.85414 33.835 9.66572L34.3825 7.22572C35.34 7.44072 36.2825 7.72572 37.1975 8.08072L36.2975 10.4132ZM39.7225 12.1882C39.3651 11.9498 38.999 11.7247 38.625 11.5132L39.8575 9.33822C40.7123 9.82256 41.5303 10.369 42.305 10.9732L40.7675 12.9457C40.4286 12.6813 40.08 12.4295 39.7225 12.1907V12.1882ZM44.3075 16.6632C43.813 15.9607 43.2673 15.2955 42.675 14.6732L44.485 12.9482C45.16 13.6607 45.785 14.4232 46.3525 15.2232L44.3075 16.6632ZM46.1675 20.0432C46.0034 19.6469 45.825 19.2566 45.6325 18.8732L47.865 17.7482C48.3065 18.6259 48.6825 19.5351 48.99 20.4682L46.615 21.2507C46.4806 20.8429 46.3314 20.4401 46.1675 20.0432ZM47.4925 26.3107C47.4723 25.4516 47.3887 24.5951 47.2425 23.7482L49.705 23.3232C49.8725 24.2882 49.97 25.2682 49.995 26.2482L47.495 26.3107H47.4925ZM47.165 30.1557C47.2475 29.7307 47.315 29.3082 47.3675 28.8807L49.85 29.1882C49.7299 30.1636 49.5377 31.1287 49.275 32.0757L46.865 31.4082C46.98 30.9957 47.08 30.5782 47.165 30.1557ZM44.785 36.1032C45.245 35.3782 45.65 34.6182 46 33.8332L48.285 34.8457C47.885 35.7457 47.4225 36.6107 46.8975 37.4407L44.785 36.1032ZM42.375 39.1157C42.68 38.8107 42.9725 38.4957 43.25 38.1707L45.145 39.8032C44.8241 40.1753 44.4897 40.5355 44.1425 40.8832L42.375 39.1157Z" fill="white"/>
<path d="M30 9.24072C27.1222 9.24093 24.2889 9.95084 21.7509 11.3076C19.213 12.6643 17.0489 14.626 15.4501 17.0188C13.8514 19.4117 12.8675 22.1619 12.5855 25.0259C12.3035 27.8898 12.7321 30.7791 13.8334 33.4379C14.9348 36.0966 16.6748 38.4427 18.8993 40.2684C21.1239 42.094 23.7643 43.3429 26.5868 43.9044C29.4093 44.4659 32.3267 44.3226 35.0806 43.4874C37.8346 42.6521 40.34 41.1505 42.375 39.1157L44.1425 40.8832C41.8168 43.2102 38.9531 44.9276 35.8051 45.8832C32.6571 46.8389 29.3219 47.0033 26.0952 46.3619C22.8684 45.7206 19.8496 44.2932 17.3064 42.2063C14.7631 40.1194 12.7738 37.4374 11.5148 34.3979C10.2558 31.3585 9.76596 28.0554 10.0886 24.7814C10.4113 21.5074 11.5365 18.3635 13.3647 15.6283C15.1928 12.8931 17.6673 10.651 20.5691 9.10073C23.4708 7.55046 26.7101 6.73985 30 6.74072V9.24072Z" fill="white"/>
<path d="M28.75 14.2407C29.0815 14.2407 29.3995 14.3724 29.6339 14.6068C29.8683 14.8413 30 15.1592 30 15.4907V28.5157L38.12 33.1557C38.3995 33.3243 38.6019 33.5956 38.6841 33.9114C38.7662 34.2273 38.7216 34.5628 38.5596 34.8462C38.3977 35.1296 38.1313 35.3384 37.8175 35.428C37.5036 35.5176 37.1671 35.4809 36.88 35.3257L28.13 30.3257C27.9387 30.2164 27.7796 30.0585 27.669 29.868C27.5584 29.6775 27.5001 29.4611 27.5 29.2407V15.4907C27.5 15.1592 27.6317 14.8413 27.8661 14.6068C28.1005 14.3724 28.4185 14.2407 28.75 14.2407Z" fill="white"/>
</svg>
