<svg width="60" height="54" viewBox="0 0 60 54" fill="none" xmlns="http://www.w3.org/2000/svg">
<rect width="60" height="53.4812" rx="8" fill="#C3937C"/>
<rect width="60" height="53.4812" rx="8" fill="#C3937C"/>
<path d="M45 14.2407C45.663 14.2407 46.2989 14.5041 46.7678 14.973C47.2366 15.4418 47.5 16.0777 47.5 16.7407V36.7407C47.5 37.4038 47.2366 38.0396 46.7678 38.5085C46.2989 38.9773 45.663 39.2407 45 39.2407H15C14.337 39.2407 13.7011 38.9773 13.2322 38.5085C12.7634 38.0396 12.5 37.4038 12.5 36.7407V16.7407C12.5 16.0777 12.7634 15.4418 13.2322 14.973C13.7011 14.5041 14.337 14.2407 15 14.2407H45ZM15 11.7407C13.6739 11.7407 12.4021 12.2675 11.4645 13.2052C10.5268 14.1429 10 15.4146 10 16.7407L10 36.7407C10 38.0668 10.5268 39.3386 11.4645 40.2763C12.4021 41.2139 13.6739 41.7407 15 41.7407H45C46.3261 41.7407 47.5979 41.2139 48.5355 40.2763C49.4732 39.3386 50 38.0668 50 36.7407V16.7407C50 15.4146 49.4732 14.1429 48.5355 13.2052C47.5979 12.2675 46.3261 11.7407 45 11.7407H15Z" fill="white"/>
<path d="M15 20.4907C15 20.1592 15.1317 19.8413 15.3661 19.6068C15.6005 19.3724 15.9185 19.2407 16.25 19.2407H21.25C21.5815 19.2407 21.8995 19.3724 22.1339 19.6068C22.3683 19.8413 22.5 20.1592 22.5 20.4907V22.9907C22.5 23.3222 22.3683 23.6402 22.1339 23.8746C21.8995 24.109 21.5815 24.2407 21.25 24.2407H16.25C15.9185 24.2407 15.6005 24.109 15.3661 23.8746C15.1317 23.6402 15 23.3222 15 22.9907V20.4907ZM15 27.9907C15 27.6592 15.1317 27.3413 15.3661 27.1068C15.6005 26.8724 15.9185 26.7407 16.25 26.7407H28.75C29.0815 26.7407 29.3995 26.8724 29.6339 27.1068C29.8683 27.3413 30 27.6592 30 27.9907C30 28.3222 29.8683 28.6402 29.6339 28.8746C29.3995 29.109 29.0815 29.2407 28.75 29.2407H16.25C15.9185 29.2407 15.6005 29.109 15.3661 28.8746C15.1317 28.6402 15 28.3222 15 27.9907ZM15 32.9907C15 32.6592 15.1317 32.3413 15.3661 32.1068C15.6005 31.8724 15.9185 31.7407 16.25 31.7407H18.75C19.0815 31.7407 19.3995 31.8724 19.6339 32.1068C19.8683 32.3413 20 32.6592 20 32.9907C20 33.3222 19.8683 33.6402 19.6339 33.8746C19.3995 34.109 19.0815 34.2407 18.75 34.2407H16.25C15.9185 34.2407 15.6005 34.109 15.3661 33.8746C15.1317 33.6402 15 33.3222 15 32.9907ZM22.5 32.9907C22.5 32.6592 22.6317 32.3413 22.8661 32.1068C23.1005 31.8724 23.4185 31.7407 23.75 31.7407H26.25C26.5815 31.7407 26.8995 31.8724 27.1339 32.1068C27.3683 32.3413 27.5 32.6592 27.5 32.9907C27.5 33.3222 27.3683 33.6402 27.1339 33.8746C26.8995 34.109 26.5815 34.2407 26.25 34.2407H23.75C23.4185 34.2407 23.1005 34.109 22.8661 33.8746C22.6317 33.6402 22.5 33.3222 22.5 32.9907ZM30 32.9907C30 32.6592 30.1317 32.3413 30.3661 32.1068C30.6005 31.8724 30.9185 31.7407 31.25 31.7407H33.75C34.0815 31.7407 34.3995 31.8724 34.6339 32.1068C34.8683 32.3413 35 32.6592 35 32.9907C35 33.3222 34.8683 33.6402 34.6339 33.8746C34.3995 34.109 34.0815 34.2407 33.75 34.2407H31.25C30.9185 34.2407 30.6005 34.109 30.3661 33.8746C30.1317 33.6402 30 33.3222 30 32.9907ZM37.5 32.9907C37.5 32.6592 37.6317 32.3413 37.8661 32.1068C38.1005 31.8724 38.4185 31.7407 38.75 31.7407H41.25C41.5815 31.7407 41.8995 31.8724 42.1339 32.1068C42.3683 32.3413 42.5 32.6592 42.5 32.9907C42.5 33.3222 42.3683 33.6402 42.1339 33.8746C41.8995 34.109 41.5815 34.2407 41.25 34.2407H38.75C38.4185 34.2407 38.1005 34.109 37.8661 33.8746C37.6317 33.6402 37.5 33.3222 37.5 32.9907Z" fill="white"/>
</svg>
