<svg width="60" height="54" viewBox="0 0 60 54" fill="none" xmlns="http://www.w3.org/2000/svg">
<rect width="60" height="53.4812" rx="8" fill="#FFF0EA"/>
<rect width="60" height="53.4812" rx="8" fill="#FFF0EA"/>
<rect x="10" y="6.74072" width="40" height="40" rx="20" fill="#FBEBED"/>
<path d="M21.2549 29.2407C22.2494 29.2407 23.2033 28.8456 23.9065 28.1424C24.6098 27.4391 25.0049 26.4853 25.0049 25.4907C25.0049 24.4962 24.6098 23.5423 23.9065 22.8391C23.2033 22.1358 22.2494 21.7407 21.2549 21.7407C20.2603 21.7407 19.3065 22.1358 18.6032 22.8391C17.9 23.5423 17.5049 24.4962 17.5049 25.4907C17.5049 26.4853 17.9 27.4391 18.6032 28.1424C19.3065 28.8456 20.2603 29.2407 21.2549 29.2407Z" fill="#C3937C"/>
<path d="M45.0049 39.2407C45.0049 40.5668 44.4781 41.8386 43.5404 42.7763C42.6027 43.7139 41.331 44.2407 40.0049 44.2407H15.0049C13.6788 44.2407 12.407 43.7139 11.4693 42.7763C10.5317 41.8386 10.0049 40.5668 10.0049 39.2407V19.2407C10.0049 17.9155 10.531 16.6445 11.4676 15.707C12.4042 14.7694 13.6747 14.242 14.9999 14.2407C14.9999 12.9146 15.5267 11.6429 16.4643 10.7052C17.402 9.76751 18.6738 9.24072 19.9999 9.24072H44.9999C46.326 9.24072 47.5977 9.76751 48.5354 10.7052C49.4731 11.6429 49.9999 12.9146 49.9999 14.2407V34.2407C49.9999 35.5659 49.4738 36.837 48.5372 37.7745C47.6006 38.712 46.3301 39.2394 45.0049 39.2407ZM44.9999 11.7407H19.9999C19.3368 11.7407 18.701 12.0041 18.2321 12.473C17.7633 12.9418 17.4999 13.5777 17.4999 14.2407H40.0049C41.331 14.2407 42.6027 14.7675 43.5404 15.7052C44.4781 16.6429 45.0049 17.9146 45.0049 19.2407V36.7407C45.6671 36.7394 46.3017 36.4754 46.7694 36.0067C47.2372 35.538 47.4999 34.9029 47.4999 34.2407V14.2407C47.4999 13.5777 47.2365 12.9418 46.7677 12.473C46.2988 12.0041 45.6629 11.7407 44.9999 11.7407ZM15.0049 16.7407C14.3418 16.7407 13.706 17.0041 13.2371 17.473C12.7683 17.9418 12.5049 18.5777 12.5049 19.2407V39.2407L19.1199 33.3557C19.3242 33.1521 19.5927 33.0255 19.8797 32.9972C20.1668 32.969 20.4548 33.0409 20.6949 33.2007L27.3449 37.6332L36.6199 28.3582C36.8053 28.1727 37.0443 28.0501 37.3032 28.0079C37.5621 27.9658 37.8277 28.0061 38.0624 28.1232L42.5049 32.9907V19.2407C42.5049 18.5777 42.2415 17.9418 41.7726 17.473C41.3038 17.0041 40.6679 16.7407 40.0049 16.7407H15.0049Z" fill="#C3937C"/>
</svg>
