<svg width="60" height="54" viewBox="0 0 60 54" fill="none" xmlns="http://www.w3.org/2000/svg">
<rect width="60" height="53.4812" rx="8" fill="#C3937C"/>
<rect width="60" height="53.4812" rx="8" fill="#C3937C"/>
<path d="M34.4178 14.856H23.3623L12.2234 26.072H15.3831L24.9414 16.4479L34.4984 26.0734H45.5567L34.4178 14.8574M33.7345 27.9339L24.9414 19.0763L17.7928 26.2748V33.251C17.7932 33.7439 17.9878 34.2166 18.3339 34.5651C18.68 34.9137 19.1492 35.1097 19.6387 35.11H28.0789L34.5192 41.5966V35.11H38.1276C38.6175 35.11 39.0873 34.914 39.4337 34.5651C39.7802 34.2162 39.9748 33.743 39.9748 33.2496V27.9325H33.7331L33.7345 27.9339Z" fill="white"/>
</svg>
