<svg width="60" height="54" viewBox="0 0 60 54" fill="none" xmlns="http://www.w3.org/2000/svg">
<rect width="60" height="53.4812" rx="8" fill="#C3937C"/>
<path d="M49.2217 7.40694C49.4269 7.5821 49.5699 7.81894 49.6294 8.08209C49.6889 8.34524 49.6616 8.62057 49.5517 8.86694C45.7267 17.4419 37.6942 29.2919 31.8142 35.4669C30.1661 37.1944 28.1335 38.5083 25.8817 39.3019C25.8367 39.8694 25.7317 40.6469 25.4817 41.4719C24.9792 43.1194 23.8142 45.1694 21.2117 45.8219C18.6913 46.4222 16.0793 46.5342 13.5167 46.1519C13.0394 46.0768 12.5687 45.964 12.1092 45.8144C11.6857 45.685 11.2911 45.4754 10.9467 45.1969C10.7192 45.0034 10.5438 44.7558 10.4367 44.4769C10.304 44.1191 10.3076 43.7249 10.4467 43.3694C10.6842 42.7569 11.2367 42.4194 11.5992 42.2394C12.5817 41.7469 13.1617 41.1069 13.7667 40.1744C14.0017 39.8144 14.2267 39.4319 14.4842 38.9944L14.7767 38.4994C15.1542 37.8619 15.5917 37.1494 16.1417 36.3794C17.4617 34.5319 19.1417 34.0669 20.5067 34.1394C20.8217 34.1569 21.1142 34.2019 21.3767 34.2594C21.5317 33.8294 21.7317 33.3094 21.9717 32.7394C22.6242 31.1919 23.6167 29.1919 24.9392 27.5669C30.3767 20.8919 40.3892 12.0519 47.7317 7.30694C47.9578 7.16104 48.2249 7.09197 48.4933 7.10998C48.7617 7.128 49.0172 7.23215 49.2217 7.40694ZM21.4217 36.8869C21.09 36.7426 20.7354 36.658 20.3742 36.6369C19.7567 36.6044 18.9392 36.7619 18.1742 37.8344C17.7306 38.4642 17.3135 39.1122 16.9242 39.7769L16.6642 40.2194C16.3967 40.6719 16.1317 41.1244 15.8642 41.5394C15.3492 42.3319 14.7692 43.0644 13.9642 43.6919C16.1776 44.0096 18.431 43.9079 20.6067 43.3919C22.0042 43.0444 22.7142 41.9694 23.0892 40.7419C23.2703 40.1321 23.3761 39.5024 23.4042 38.8669L21.4217 36.8869ZM25.0217 36.9519C25.3217 36.8519 25.7142 36.7019 26.1667 36.4944C27.6069 35.8263 28.9087 34.8934 30.0042 33.7444C34.7542 28.7544 41.0342 19.8194 45.1342 12.1669C38.6567 16.9844 31.2192 23.8169 26.8792 29.1469C25.7742 30.5044 24.8892 32.2544 24.2742 33.7119C24.0241 34.3049 23.794 34.9061 23.5842 35.5144L25.0217 36.9519ZM12.5892 44.5519L12.6067 44.5394C12.6014 44.5435 12.5955 44.5494 12.5892 44.5519Z" fill="white"/>
</svg>
