<svg width="183" height="101" viewBox="0 0 183 101" fill="none" xmlns="http://www.w3.org/2000/svg">
<path d="M91.4419 101C67.4798 101 44.9457 96.9883 27.9885 89.7186C10.8691 82.375 1.43912 72.5251 1.43912 61.9848C1.43912 51.4445 10.8691 41.5946 27.9885 34.2489C44.9457 26.975 67.4798 22.9696 91.4419 22.9696C115.404 22.9696 137.938 26.9814 154.893 34.2489C172.015 41.5946 181.443 51.4445 181.443 61.9848C181.443 72.5251 172.015 82.375 154.893 89.7186C137.938 96.9946 115.402 101 91.4419 101ZM91.4419 24.2006C67.5862 24.2006 45.1654 28.1828 28.3096 35.4145C11.6178 42.5744 2.42437 52.0104 2.42437 61.9848C2.42437 71.9593 11.6178 81.3953 28.3096 88.5552C45.1654 95.7869 67.5862 99.769 91.4419 99.769C115.297 99.769 137.718 95.7869 154.574 88.5552C171.264 81.3953 180.458 71.9571 180.458 61.9848C180.458 52.0125 171.264 42.5744 154.574 35.4145C137.718 28.1828 115.297 24.2006 91.4419 24.2006Z" fill="#C3937C"/>
<path d="M20.5746 36.8819C15.2225 38.4465 11.0753 42.9819 7.79679 48.3196C5.92261 51.3727 4.31206 54.6687 2.80292 58.0195C1.34617 61.2543 -0.360704 64.9577 0.0668588 68.8217C0.925364 76.5643 8.2818 78.0043 13.2486 78.8531C17.1694 79.5224 20.6118 80.9434 24.0222 83.4856C27.0016 85.709 29.7917 88.3018 32.7864 90.4956C38.7249 94.8452 45.2431 98.0968 52.0385 99.5874C58.8626 101.084 65.4011 100.305 72.1238 98.4895C76.0834 97.419 80.0143 96.509 84.0736 96.3084C88.0281 96.112 91.9877 96.3823 95.9372 96.6462C103.87 97.1755 111.802 97.7083 119.734 98.2446C131.577 99.0385 145.321 100.903 155.782 92.3326C161.069 87.9978 163.984 80.6816 169.039 76.0745C173.025 72.4407 179.315 71.7777 181.975 66.1021C184.929 59.791 180.975 52.8486 176.736 49.4724C173.708 47.0612 170.281 45.4227 167.014 43.5984L156.114 37.5069C152.548 35.5137 148.992 33.4952 145.411 31.5357C142.141 29.7516 138.803 28.1722 135.249 27.5747C127.813 26.3226 120.237 28.2081 112.761 27.7119C104.967 27.201 97.2722 25.4675 89.5575 24.0845C85.9883 23.451 82.4073 22.8746 78.8093 22.5326C75.1184 22.1821 71.2366 21.8337 67.5558 22.4798C64.3111 23.0499 62.1614 25.3366 59.6011 27.6549C56.3192 30.6278 52.7365 30.9635 48.8174 30.4272C45.3057 29.9479 41.8784 29.304 38.3396 29.5552C31.7561 30.0144 25.3794 32.5913 19.8277 37.0361C19.6012 37.2155 19.8108 37.6695 20.0389 37.4879C25.863 32.8485 32.5845 30.2676 39.4888 30.0197C45.4037 29.8276 52.1855 33.1996 57.7607 29.7199C60.6337 27.9294 62.6955 24.625 65.8388 23.4595C69.2965 22.1757 73.3693 22.6445 76.9267 22.8979C84.2967 23.4257 91.5787 25.0093 98.8743 26.3437C105.671 27.5831 112.526 28.6051 119.409 28.3369C126.766 28.0477 133.965 26.7745 141.08 29.9142C148.105 33.0159 154.865 37.3739 161.663 41.1724C164.949 43.0093 168.239 44.8294 171.519 46.6811C174.539 48.3871 177.673 50.2705 179.91 53.4166C182.202 56.645 183.486 61.5921 181.732 65.608C180.419 68.6126 177.828 70.1814 175.422 71.4863C173.015 72.7912 170.539 73.9736 168.427 76.009C166.21 78.1437 164.42 80.8653 162.622 83.5131C158.615 89.4251 154.217 93.8401 148.193 96.0888C142.508 98.2108 136.486 98.5106 130.592 98.3544C116.288 97.9701 102.013 95.8903 87.7053 95.7341C84.3051 95.6961 80.9049 95.9093 77.5469 96.6061C74.0453 97.3324 70.618 98.4895 67.113 99.2201C60.2247 100.654 53.213 99.8873 46.5275 97.438C40.0837 95.0774 34.1772 91.2029 28.6138 86.5662C25.9859 84.3787 23.3563 82.1322 20.4411 80.5718C17.3502 78.9186 14.1173 78.5533 10.832 77.9241C7.62103 77.3075 4.24109 76.18 2.03399 72.9622C-0.903181 68.6675 0.916915 63.3868 2.81475 59.0943C5.52715 52.9584 8.60797 46.7233 12.9934 42.226C15.2277 39.8946 17.8635 38.2411 20.6946 37.395C20.9566 37.319 20.845 36.8144 20.5831 36.8904L20.5746 36.8819Z" fill="#C3937C"/>
<path d="M66.7294 23.4954C84.3357 14.8807 103.447 12.2082 122.142 15.7464C122.51 15.8161 122.669 15.113 122.297 15.0391C103.503 11.4675 84.2875 14.1408 66.5824 22.7902C66.2343 22.9612 66.3864 23.6686 66.7379 23.4954H66.7294Z" fill="#C3937C"/>
<path d="M81.0519 17.9149C88.1498 11.2301 97.0069 9.09752 105.556 7.14655C105.928 7.06209 105.771 6.35687 105.401 6.44133C96.7974 8.40075 87.8912 10.5608 80.7494 17.2836C80.452 17.5644 80.7494 18.1999 81.0452 17.917L81.0519 17.9149Z" fill="#C3937C"/>
<path d="M86.2654 13.9855C93.5323 5.72552 103.931 2.59848 113.418 5.79731C113.493 5.82307 113.573 5.81062 113.64 5.76271C113.708 5.71479 113.757 5.63534 113.778 5.54183C113.799 5.44831 113.789 5.34838 113.75 5.26404C113.712 5.1797 113.648 5.11785 113.574 5.09209C103.88 1.82147 93.2788 5.03085 85.8581 13.4682C85.5793 13.7849 85.9933 14.3127 86.2722 13.9855H86.2654Z" fill="#C3937C"/>
<path d="M87.5245 13.4133C96.6047 13.1578 105.945 12.6236 113.689 5.97469C113.996 5.70865 113.704 5.0731 113.393 5.34126C105.734 11.9247 96.51 12.4272 87.5245 12.6806C87.1476 12.6806 87.1476 13.4238 87.5245 13.4133Z" fill="#C3937C"/>
<path d="M91.5162 11.0295C93.258 9.27314 95.0955 7.67022 97.0153 6.23228C97.3398 5.99158 97.044 5.35815 96.7196 5.59885C94.7578 7.07052 92.8808 8.71158 91.1021 10.5101C90.8081 10.8057 91.2255 11.3208 91.5162 11.0274V11.0295Z" fill="#C3937C"/>
<path d="M95.6718 9.71613C98.1003 7.51812 100.868 6.07812 103.687 4.85982C104.042 4.7078 103.888 4.00047 103.532 4.1546C100.659 5.39613 97.8434 6.85513 95.376 9.08692C95.0735 9.36141 95.3642 9.99695 95.6718 9.72035V9.71613Z" fill="#C3937C"/>
<path d="M100.921 8.28458C103.776 6.67676 106.822 5.66258 109.939 5.28211C110.31 5.23566 110.314 4.50299 109.939 4.54944C106.72 4.94382 103.574 5.99148 100.625 7.65115C100.287 7.84329 100.578 8.47461 100.921 8.28458Z" fill="#C3937C"/>
<path d="M94.3655 10.7381C96.5402 11.7926 98.8783 12.2157 101.203 11.9754C101.577 11.9374 101.58 11.2047 101.203 11.2449C98.9314 11.4828 96.6463 11.0683 94.5227 10.0329C94.1728 9.85765 94.0157 10.565 94.3655 10.7381Z" fill="#C3937C"/>
<path d="M99.067 9.23476C101.989 10.0793 105.112 10.4319 108.061 9.59793C108.428 9.49447 108.272 8.78713 107.904 8.89059C105.065 9.69505 102.035 9.35089 99.2241 8.52954C98.8574 8.42185 98.7002 9.12707 99.067 9.23476Z" fill="#C3937C"/>
<path d="M103.341 7.62586C106.183 7.71242 109.065 7.75043 111.89 7.32181C112.261 7.2648 112.266 6.53213 111.89 6.58914C109.065 7.01143 106.183 6.98187 103.341 6.8953C102.964 6.88263 102.964 7.6153 103.341 7.62586Z" fill="#C3937C"/>
<path d="M111.478 14.1206C118.989 10.4849 126.98 8.64553 135.035 8.69846C135.109 8.69144 135.178 8.6498 135.228 8.58187C135.278 8.51394 135.306 8.42474 135.306 8.33212C135.306 8.2395 135.278 8.1503 135.228 8.08237C135.178 8.01444 135.109 7.9728 135.035 7.96579C126.928 7.91093 118.886 9.75954 111.326 13.4154C110.978 13.5843 111.13 14.2917 111.481 14.1206H111.478Z" fill="#C3937C"/>
<path d="M115.348 12.2077C122.615 4.61915 133.221 3.58454 141.587 9.13552C141.925 9.34666 141.756 8.45986 141.418 8.23816C137.232 5.44239 132.472 4.27686 127.752 4.89178C123.031 5.5067 118.566 7.87389 114.932 11.6882C114.642 11.9923 115.059 12.5075 115.346 12.2077H115.348Z" fill="#C3937C"/>
<path d="M115.649 12.1422C120.364 12.864 125.123 13.0209 129.862 12.6109C133.694 12.271 138.543 12.1654 141.833 9.41844C142.146 9.15873 141.854 8.5253 141.538 8.78501C139.751 10.2757 137.651 10.6853 135.574 11.0823C133.252 11.5228 130.917 11.8213 128.571 11.9775C124.258 12.2555 119.935 12.0648 115.649 11.4074C115.275 11.3504 115.277 12.0831 115.649 12.1401V12.1422Z" fill="#C3937C"/>
<path d="M119.7 10.6367C122.211 8.19169 125.121 6.57222 128.199 5.59885C128.564 5.48272 128.408 4.77538 128.043 4.89151C124.863 5.90078 121.878 7.59416 119.286 10.1194C118.988 10.4087 119.406 10.9239 119.7 10.6367Z" fill="#C3937C"/>
<path d="M127.6 9.19672C130.106 7.27152 133.02 6.34298 135.957 6.5342C136.334 6.55742 136.332 5.82475 135.957 5.80364C132.916 5.61358 129.9 6.57625 127.305 8.5654C126.982 8.81033 127.276 9.44376 127.6 9.19883V9.19672Z" fill="#C3937C"/>
<path d="M123.075 9.95688C124.88 10.5903 126.598 11.4623 128.461 11.8466C130.277 12.2064 132.122 12.2681 133.951 12.0303C134.323 11.986 134.326 11.2533 133.951 11.2976C131.974 11.5575 129.978 11.4601 128.023 11.0084C126.375 10.6114 124.837 9.81752 123.23 9.24955C123.157 9.23006 123.08 9.24634 123.016 9.29506C122.952 9.34378 122.905 9.42125 122.885 9.51161C122.866 9.60198 122.874 9.69842 122.909 9.78119C122.944 9.86396 123.004 9.92682 123.075 9.95688Z" fill="#C3937C"/>
<path d="M128.915 8.93494C132.334 10.3602 135.995 11.19 139.604 10.8162C139.978 10.7761 139.981 10.0435 139.604 10.0836C136.04 10.4531 132.447 9.63594 129.071 8.22972C128.712 8.07981 128.564 8.78714 128.915 8.93494Z" fill="#C3937C"/>
<path d="M76.8405 5.31802C78.6082 8.32049 78.9242 12.2414 77.312 15.4698C75.791 18.504 72.8386 19.8848 70.3155 21.215C69.9775 21.3945 70.1229 22.104 70.471 21.9203C73.3186 20.4211 76.5549 18.8882 78.0759 15.284C79.5022 11.9163 79.1321 7.97843 77.3475 4.94852C77.1261 4.57479 76.6174 4.93796 76.8405 5.31802Z" fill="#C3937C"/>
<path d="M77.1886 5.57564C76.6681 5.56297 76.1442 5.55874 75.6237 5.5334C75.3413 5.53597 75.0591 5.51622 74.7787 5.47428C74.6582 4.89716 74.7708 4.66067 75.1167 4.76484C75.1615 4.76408 75.2057 4.75059 75.2457 4.7254C75.2857 4.70021 75.3207 4.66397 75.3479 4.61942C75.3751 4.57488 75.3938 4.5232 75.4026 4.46828C75.4115 4.41337 75.4102 4.35665 75.3989 4.30243C75.3449 4.01528 75.0035 2.88144 75.1285 2.67874C75.4885 2.0981 75.8637 2.90677 75.9921 3.24038C76.1206 3.57399 76.4433 3.41563 76.5278 3.15382C76.6968 2.62173 77.3914 1.85317 77.5993 2.65129C77.5739 2.55839 77.5756 3.49587 77.5638 3.25939C77.5651 3.35612 77.5966 3.44839 77.6515 3.5166C77.7064 3.58481 77.7804 3.62358 77.8578 3.62466C77.9559 3.62466 78.7924 3.47053 78.8313 3.55921C79.1304 4.26021 77.5739 4.85986 77.3002 4.87464C76.925 4.89575 76.9216 5.62842 77.3002 5.60731C78.1451 5.56085 79.2149 4.91475 79.3957 3.75346C79.5833 2.54361 78.4848 2.83921 77.8578 2.89199L78.1502 3.25939C78.113 2.39792 78.4662 1.35909 77.4117 1.26407C76.5954 1.18595 76.2169 2.15721 75.9617 2.95323L76.4974 2.86454C76.2321 2.1741 75.6862 1.24929 74.9883 1.75182C74.1737 2.3388 74.6756 3.65211 74.8345 4.49669L75.1167 4.03217C74.4897 4.03217 73.5602 4.36578 73.8712 5.40883C74.2717 6.75804 76.3876 6.28719 77.1937 6.3083C77.5722 6.31886 77.5722 5.58619 77.1937 5.57564H77.1886Z" fill="#C3937C"/>
<path d="M77.6956 4.48403C77.2477 3.89072 76.4923 3.51488 75.9059 4.04274C75.4327 4.46503 75.2739 5.3835 75.7217 5.91981C76.1696 6.45611 77.1869 6.5279 77.7497 6.30198C78.3124 6.07605 78.6876 5.24626 78.3513 4.56637C78.1536 4.1652 77.6466 4.53259 77.8443 4.93587C78.2786 5.81212 76.6394 5.677 76.3233 5.52919C75.933 5.34339 75.9752 4.73529 76.3588 4.55793C76.6968 4.39957 77.0585 4.71207 77.2782 5.00134C77.5384 5.3455 77.9542 4.82608 77.6922 4.48403H77.6956Z" fill="#C3937C"/>
<path d="M91.5669 15.4846C97.9426 17.8315 104.578 18.8851 111.221 18.6053C111.596 18.5905 111.598 17.8579 111.221 17.8726C104.631 18.1536 98.0477 17.1107 91.7224 14.7836C91.359 14.6506 91.2035 15.3558 91.5652 15.4888L91.5669 15.4846Z" fill="#C3937C"/>
<path d="M97.4682 17.1907C104.789 14.9733 112.495 15.9262 119.326 19.8933C119.664 20.0897 119.963 19.4584 119.622 19.2599C112.653 15.2029 104.787 14.224 97.3144 16.4833C96.9477 16.5952 97.1032 17.3005 97.4699 17.1907H97.4682Z" fill="#C3937C"/>
<path d="M97.4226 17.5032C104.035 22.805 112.026 22.3405 119.424 20.4127C119.793 20.3177 119.637 19.6125 119.269 19.7075C112.021 21.5951 104.199 22.0681 97.7184 16.8719C97.4007 16.6164 97.1066 17.2498 97.4226 17.5053V17.5032Z" fill="#C3937C"/>
<path d="M102.099 17.8811C104.282 17.0893 106.559 16.4791 108.838 16.4031C109.214 16.3904 109.215 15.6599 108.838 15.6725C106.508 15.7507 104.174 16.3693 101.943 17.1759C101.582 17.3068 101.735 18.0205 102.099 17.8832V17.8811Z" fill="#C3937C"/>
<path d="M109.148 18.4723C112.327 18.1466 115.527 18.5422 118.593 19.6399C118.956 19.7687 119.112 19.0635 118.75 18.9347C115.633 17.8173 112.38 17.4125 109.148 17.7396C108.774 17.7777 108.771 18.5103 109.148 18.4723Z" fill="#C3937C"/>
<path d="M104.348 18.4892C105.626 20.0808 107.243 21.1801 109.007 21.6563C109.376 21.7556 109.533 21.0504 109.163 20.949C107.499 20.5032 105.973 19.4673 104.769 17.9656C104.714 17.897 104.64 17.8584 104.562 17.8584C104.484 17.8584 104.41 17.897 104.355 17.9656C104.3 18.0342 104.269 18.1272 104.269 18.2242C104.269 18.3212 104.3 18.4143 104.355 18.4829L104.348 18.4892Z" fill="#C3937C"/>
<path d="M109.261 18.485C111.049 19.9353 113.091 20.8241 115.213 21.0757C115.586 21.1222 115.585 20.3895 115.213 20.343C113.193 20.0957 111.251 19.2408 109.553 17.8515C109.236 17.5961 108.941 18.2295 109.258 18.485H109.261Z" fill="#C3937C"/>
<path d="M62.5636 25.3978C65.4058 19.73 69.5647 15.2808 74.4847 12.6447C74.8227 12.4589 74.532 11.8276 74.1889 12.0113C69.1809 14.7099 64.9495 19.2504 62.0583 25.0283C61.8572 25.4295 62.3642 25.7969 62.5653 25.3978H62.5636Z" fill="#C3937C"/>
<path d="M64.4175 21.8738C65.5852 14.659 70.9475 9.9843 76.7847 11.2047C77.1531 11.2828 77.312 10.5713 76.9402 10.4995C70.8056 9.21574 65.0884 14.0404 63.853 21.6901C63.7787 22.1504 64.3431 22.3468 64.4175 21.8844V21.8738Z" fill="#C3937C"/>
<path d="M64.8519 21.3587C67.3307 20.9357 69.6984 19.806 71.772 18.057C73.8456 16.308 75.5694 13.9866 76.8101 11.2723C76.9977 10.8627 76.4907 10.4932 76.3031 10.9007C75.1005 13.5327 73.4277 15.7822 71.4151 17.4738C69.4024 19.1655 67.1043 20.2536 64.6998 20.6534C64.328 20.7168 64.4851 21.422 64.8553 21.3587H64.8519Z" fill="#C3937C"/>
<path d="M66.9052 18.4871C67.7144 16.4714 68.7634 14.6205 70.0164 12.9973C70.2783 12.6595 69.8643 12.1401 69.6024 12.48C68.3092 14.1454 67.2264 16.0471 66.3914 18.1197C66.2224 18.542 66.7294 18.9115 66.8984 18.4892L66.9052 18.4871Z" fill="#C3937C"/>
<path d="M71.0557 14.6379C72.2574 12.9763 73.8049 11.7643 75.5256 11.1372C75.8856 11.0041 75.7318 10.2926 75.3685 10.4298C73.5489 11.0913 71.9112 12.3686 70.6365 14.1206C70.3831 14.4669 70.8055 14.9863 71.0523 14.6379H71.0557Z" fill="#C3937C"/>
<path d="M68.6847 16.6839C70.2745 16.9226 71.887 16.7156 73.4048 16.0779C73.7597 15.9301 73.6076 15.2228 73.2476 15.3706C71.7802 15.9861 70.2213 16.1845 68.6847 15.9512C68.3112 15.8963 68.3146 16.629 68.6847 16.6839Z" fill="#C3937C"/>
<path d="M73.0533 13.7659C73.7658 13.8793 74.4892 13.8213 75.1843 13.5949C75.5494 13.4766 75.3939 12.7714 75.0271 12.8875C74.3829 13.0951 73.7126 13.1445 73.0533 13.0332C72.6798 12.9741 72.6832 13.7068 73.0533 13.7659Z" fill="#C3937C"/>
<path d="M120.384 15.4593C123.195 14.3318 126.027 15.0117 128.486 16.9837C128.805 17.2392 129.099 16.6058 128.782 16.3503C126.204 14.2853 123.173 13.5738 120.229 14.752C119.87 14.8955 120.024 15.5965 120.384 15.4593Z" fill="#C3937C"/>
<path d="M119.752 15.5437C122.133 17.9339 125.907 17.7206 128.755 17.1738C129.126 17.102 128.968 16.3967 128.599 16.4685C126.002 16.9668 122.335 17.2033 120.166 15.0264C119.876 14.735 119.458 15.2502 119.752 15.5437Z" fill="#C3937C"/>
<path d="M121.273 15.8541C123.494 16.0362 125.706 16.3646 127.9 16.838C128.268 16.9161 128.427 16.2046 128.055 16.1307C125.81 15.6467 123.546 15.3098 121.273 15.1214C120.896 15.0919 120.898 15.8245 121.273 15.8541Z" fill="#C3937C"/>
<path d="M77.7311 19.0065C82.1934 18.6303 86.6758 18.9252 91.0819 19.8848C91.4503 19.9651 91.6091 19.2514 91.2373 19.1775C86.7827 18.2024 82.2503 17.8997 77.7378 18.2759C77.3627 18.3055 77.361 19.0381 77.7378 19.0065H77.7311Z" fill="#C3937C"/>
<path d="M90.9872 19.4942C91.4116 19.2136 91.8674 19.0143 92.3392 18.903C92.4119 18.8883 93 18.7236 93.0625 18.8186C92.9172 18.5969 92.4828 18.9917 92.3307 19.0487C92.1144 19.1332 92.0147 19.585 92.2598 19.718L92.9053 20.0622L93.1757 20.2079C93.1143 20.2967 93.0295 20.3553 92.9366 20.3731C92.8436 20.3909 92.7487 20.3668 92.6687 20.305C92.619 20.2872 92.5663 20.2867 92.5163 20.3034C92.4663 20.3201 92.4208 20.3535 92.3848 20.4C92.2158 20.645 92.2902 20.7083 92.2767 20.9912L92.3358 21.1686C92.2764 21.1916 92.2124 21.1884 92.1546 21.1596C92.0967 21.1308 92.0486 21.0781 92.0181 21.0102C91.8684 20.8369 91.7562 20.619 91.6919 20.3768C91.523 19.7835 91.381 19.1838 90.7709 19.3211C90.4008 19.4098 90.5563 20.1171 90.9264 20.0284C90.9348 20.0284 91.3996 21.2509 91.4976 21.3861C91.6941 21.6844 91.9657 21.8906 92.2682 21.971C92.3915 21.9966 92.5181 21.9755 92.6316 21.9103C92.7452 21.8452 92.8405 21.7391 92.9053 21.6057C92.9592 21.469 92.9781 21.3149 92.9594 21.1644C92.9452 21.0858 92.9242 21.0093 92.8969 20.9363C92.8631 20.7548 92.831 20.7463 92.7989 20.9131L92.5133 21.006C93.0084 21.2172 93.7605 21.2509 93.8652 20.4064C93.97 19.5618 93.0101 19.3274 92.5606 19.0846C92.5386 19.3084 92.515 19.5301 92.4913 19.7539C92.8377 19.6209 93.2907 19.4034 93.4884 18.9917C93.5255 18.9229 93.5504 18.845 93.5613 18.7631C93.5722 18.6813 93.5689 18.5974 93.5516 18.5173C93.5343 18.4372 93.5034 18.3627 93.461 18.2988C93.4186 18.2349 93.3657 18.1832 93.3059 18.1471C92.9881 17.9698 92.52 18.126 92.1888 18.202C91.6656 18.329 91.1604 18.5524 90.6898 18.865C90.3518 19.0762 90.6509 19.7096 90.9855 19.4985L90.9872 19.4942Z" fill="#C3937C"/>
<path d="M33.0178 31.1241C34.5388 28.7571 36.2744 26.7217 38.4832 25.383C41.9426 23.2906 45.936 22.7733 49.7164 22.4524C50.0916 22.4207 50.095 21.688 49.7164 21.7197C45.9258 22.0406 41.9764 22.5643 38.4849 24.5765C36.102 25.9447 34.2346 28.0751 32.6038 30.6067C32.3689 30.9699 32.7813 31.4914 33.0178 31.1241Z" fill="#C3937C"/>
<path d="M34.7045 28.7909C37.0975 21.4135 44.0365 20.5816 49.4782 22.085C49.8466 22.1863 50.0038 21.4811 49.6354 21.3797C43.8337 19.7772 36.6615 20.8223 34.14 28.5945C33.9981 29.0316 34.5659 29.228 34.7045 28.7909Z" fill="#C3937C"/>
<path d="M35.0458 28.5692C38.4258 28.5565 41.9037 28.1469 45.1857 27.0194C47.3725 26.2635 49.37 24.8509 50.1424 22.0469C50.2657 21.6014 49.6996 21.4135 49.5779 21.8527C48.6569 25.1909 45.86 26.1537 43.3639 26.8019C40.6284 27.4961 37.8439 27.8435 35.0526 27.8386C34.9751 27.8386 34.9007 27.8771 34.8459 27.9456C34.791 28.0141 34.7602 28.107 34.7602 28.2039C34.7602 28.3008 34.791 28.3937 34.8459 28.4622C34.9007 28.5307 34.9751 28.5692 35.0526 28.5692H35.0458Z" fill="#C3937C"/>
<path d="M37.6179 25.8729C38.986 24.2852 40.5394 22.9667 42.2248 21.9625C42.5628 21.7514 42.2687 21.1285 41.929 21.3291C40.1964 22.365 38.6007 23.7257 37.1971 25.364C36.9217 25.6871 37.3357 26.2086 37.6112 25.8813L37.6179 25.8729Z" fill="#C3937C"/>
<path d="M43.614 23.1027C44.8933 22.1437 46.387 21.7288 47.871 21.9203C48.2462 21.9646 48.2428 21.232 47.871 21.1876C46.2827 20.9947 44.6868 21.444 43.3183 22.4693C42.9938 22.71 43.2878 23.3434 43.614 23.1027Z" fill="#C3937C"/>
<path d="M38.4376 25.3936C40.9248 26.7108 43.6713 27.0646 46.3213 26.4092C46.6914 26.3163 46.5359 25.6111 46.1658 25.704C43.6673 26.318 41.0791 25.9902 38.73 24.7623C38.392 24.5765 38.0878 25.2078 38.4342 25.3957L38.4376 25.3936Z" fill="#C3937C"/>
<path d="M41.9477 23.9177C43.8236 24.7306 46.9906 25.8834 48.9188 24.6778C49.2568 24.4666 48.9594 23.8332 48.6231 24.0444C47.8406 24.5342 46.6948 24.3569 45.86 24.2555C44.5801 24.0925 43.3198 23.7431 42.1049 23.2146C41.7466 23.0604 41.5979 23.7678 41.9477 23.9198V23.9177Z" fill="#C3937C"/>
<path d="M51.5957 31.6202C55.635 33.2494 59.8746 33.9644 64.115 33.7317C64.4919 33.7127 64.4936 32.98 64.115 33.0011C59.9274 33.2311 55.7406 32.5261 51.7512 30.9192C51.3912 30.7736 51.2442 31.4809 51.5957 31.6245V31.6202Z" fill="#C3937C"/>
<path d="M55.9609 32.8765C60.2917 31.3884 64.8929 31.708 69.0649 33.7866C69.4165 33.9597 69.5719 33.2524 69.2204 33.0813C64.9464 30.965 60.2365 30.6484 55.8054 32.1798C55.7306 32.2055 55.667 32.2674 55.6287 32.3517C55.5903 32.4361 55.5803 32.536 55.601 32.6295C55.6216 32.723 55.6711 32.8025 55.7386 32.8504C55.8061 32.8983 55.8861 32.9107 55.9609 32.885V32.8765Z" fill="#C3937C"/>
<path d="M56.0235 33.5205C60.0946 36.8777 65.0766 36.5948 69.2745 33.8077C69.6125 33.586 69.3117 32.9631 68.9788 33.1743C64.96 35.8431 60.2163 36.1007 56.3192 32.8892C56.0032 32.6295 55.7108 33.263 56.0235 33.5227V33.5205Z" fill="#C3937C"/>
<path d="M60.5272 33.3347C61.7102 32.6084 62.927 32.3275 64.2452 32.26C64.6203 32.241 64.622 31.5083 64.2452 31.5273C62.8307 31.5991 61.5125 31.92 60.2349 32.7034C59.8969 32.9145 60.1926 33.548 60.5306 33.3368L60.5272 33.3347Z" fill="#C3937C"/>
<path d="M63.9173 33.5501C65.4144 33.3674 66.9223 33.3674 68.4194 33.5501C68.7946 33.5944 68.7912 32.8617 68.4194 32.8174C66.9222 32.6369 65.4145 32.6369 63.9173 32.8174C63.5455 32.8617 63.5421 33.5944 63.9173 33.5501Z" fill="#C3937C"/>
<path d="M58.1933 33.4909C59.8861 34.8274 61.7969 35.6736 63.7854 35.9677C64.1572 36.0289 64.1538 35.2962 63.7854 35.235C61.9007 34.9458 60.0916 34.1335 58.4908 32.8575C58.1714 32.6041 57.8773 33.2376 58.1933 33.4909Z" fill="#C3937C"/>
<path d="M62.1665 34.0484C63.723 34.7806 65.3933 35.0572 67.0488 34.8571C67.4223 34.8148 67.4256 34.0822 67.0488 34.1265C65.4443 34.3205 63.8256 34.0526 62.3169 33.3432C61.962 33.1785 61.8099 33.8858 62.1597 34.0484H62.1665Z" fill="#C3937C"/>
<path d="M148.691 32.3487C140.767 30.29 132.067 31.0628 124.254 33.5881C123.889 33.7063 124.045 34.4115 124.41 34.2933C132.111 31.8039 140.72 31.0248 148.536 33.056C148.903 33.151 149.06 32.4458 148.691 32.3487Z" fill="#C3937C"/>
<path d="M139.339 31.2043C134.739 29.4412 128.185 29.5151 124.313 33.4931C124.021 33.7908 124.438 34.306 124.727 34.0104C128.401 30.2478 134.83 30.2414 139.183 31.9095C139.545 32.0488 139.699 31.3415 139.339 31.2043Z" fill="#C3937C"/>
<path d="M140.272 31.5991C138.174 33.8844 135.574 35.3268 132.811 35.7381C130.047 36.1494 127.248 35.5105 124.78 33.9048C124.442 33.6937 124.148 34.3271 124.484 34.5383C129.855 37.9694 136.12 37.0382 140.686 32.1186C140.971 31.8103 140.556 31.2951 140.272 31.6012V31.5991Z" fill="#C3937C"/>
<path d="M127.416 35.7397C129.412 34.9268 131.528 33.9513 133.218 32.3614C133.515 32.0805 133.218 31.445 132.922 31.7279C131.266 33.2904 129.214 34.2427 127.261 35.0366C126.904 35.1822 127.056 35.8811 127.416 35.7439V35.7397Z" fill="#C3937C"/>
<path d="M132.898 36.3013C135.05 34.9415 137.379 33.6409 139.275 31.7554C139.569 31.4619 139.151 30.9467 138.859 31.236C137.01 33.0771 134.702 34.3419 132.606 35.67C132.268 35.8811 132.566 36.5146 132.902 36.3034L132.898 36.3013Z" fill="#C3937C"/>
<path d="M127.171 32.2241C128.1 32.224 129.026 32.3659 129.927 32.6464C130.296 32.7499 130.453 32.0446 130.085 31.9412C129.132 31.6454 128.153 31.4964 127.171 31.4978C126.794 31.5126 126.793 32.2452 127.171 32.2304V32.2241Z" fill="#C3937C"/>
<path d="M131.214 31.2676C132.559 31.4365 133.897 31.666 135.229 31.9559C135.597 32.0362 135.756 31.3225 135.384 31.2507C134.001 30.9495 132.611 30.7109 131.214 30.535C130.838 30.4885 130.842 31.2191 131.214 31.2676Z" fill="#C3937C"/>
<path d="M140.953 23.9219C147.144 29.0108 153.664 33.4467 160.445 37.1839C160.783 37.3739 161.085 36.7426 160.741 36.5504C153.96 32.8133 147.44 28.3773 141.249 23.2885C140.933 23.0288 140.639 23.6622 140.953 23.9219Z" fill="#C3937C"/>
<path d="M149.306 29.3399C144.39 27.9949 139.505 25.9067 136.88 20.115C136.694 19.7033 136.187 20.0728 136.373 20.4845C139.077 26.4451 144.073 28.6579 149.149 30.0451C149.518 30.1465 149.673 29.4412 149.305 29.3399H149.306Z" fill="#C3937C"/>
<path d="M136.741 20.626C142.183 20.7379 147.412 23.8755 149.638 30.3534C149.786 30.7757 150.29 30.4125 150.145 29.9839C147.841 23.28 142.371 20.0094 136.743 19.8933C136.365 19.8933 136.365 20.6175 136.743 20.626H136.741Z" fill="#C3937C"/>
<path d="M138.688 20.9997C140.046 21.9203 141.263 23.1358 142.28 24.5891C142.528 24.946 142.942 24.4266 142.694 24.0718C141.643 22.5688 140.387 21.3112 138.984 20.3578C138.646 20.1319 138.357 20.7653 138.688 20.9913V20.9997Z" fill="#C3937C"/>
<path d="M143.266 22.5094C144.449 24.1985 145.6 25.9911 146.405 28.016C146.574 28.4383 147.081 28.0688 146.912 27.6465C146.087 25.5689 144.904 23.7256 143.682 21.99C143.432 21.6374 143.02 22.1568 143.268 22.5094H143.266Z" fill="#C3937C"/>
<path d="M138.156 23.0182C139.292 23.5165 140.353 24.1436 141.555 24.3822C141.901 24.4519 142.051 23.7889 141.702 23.7192C140.502 23.4806 139.439 22.8535 138.303 22.3552C137.965 22.2074 137.823 22.8725 138.156 23.0182Z" fill="#C3937C"/>
<path d="M140.875 26.0355C142.085 26.5169 143.339 26.614 144.58 26.9012C144.948 26.9877 145.107 26.2825 144.735 26.1959C143.496 25.9067 142.241 25.8117 141.032 25.3281C140.672 25.1846 140.525 25.8919 140.875 26.0355Z" fill="#C3937C"/>
<path d="M135.526 23.3518C135.57 22.5241 135.776 19.8489 134.95 19.3886C134.124 18.9283 133.711 20.7632 133.681 21.4325L134.095 21.1348C133.419 20.5689 131.878 19.3422 131.163 20.5394C130.554 21.5529 131.597 22.4608 132.295 22.6086V21.9435C131.677 22.0596 130.049 21.992 129.987 23.1723C129.924 24.3526 131.435 24.2281 131.984 24.2597C131.92 24.0655 131.856 23.8691 131.79 23.6727C131.087 24.4012 131.038 25.5266 132.077 25.7462C133.326 26.008 134.678 25.0494 135.521 23.9916C135.567 23.9259 135.592 23.8408 135.589 23.7535C135.587 23.6663 135.558 23.5834 135.509 23.5217C135.459 23.46 135.393 23.424 135.323 23.4211C135.253 23.4182 135.185 23.4485 135.133 23.5059C134.638 24.1505 134.02 24.6253 133.336 24.8847C132.897 25.0452 131.175 25.2014 132.18 24.1605C132.378 23.9493 132.202 23.5883 131.984 23.5714C131.646 23.5482 130.605 23.3814 131.308 22.8155C131.548 22.6255 132.153 22.6614 132.434 22.6044C132.714 22.5474 132.694 21.9942 132.434 21.9393C131.846 21.966 131.739 21.7436 132.114 21.272C132.165 20.7927 132.327 20.6703 132.598 20.9068C132.966 20.9258 133.515 21.4832 133.808 21.7239C133.85 21.7535 133.897 21.7689 133.945 21.7688C133.993 21.7687 134.041 21.753 134.083 21.7232C134.124 21.6934 134.159 21.6506 134.184 21.5989C134.209 21.5473 134.222 21.4885 134.223 21.4283C134.166 20.8652 134.366 20.5014 134.825 20.3367C134.895 20.7425 134.944 21.1537 134.97 21.5676C135.007 22.1601 135.007 22.7551 134.97 23.3476C134.947 23.7889 135.498 23.7868 135.521 23.3476L135.526 23.3518Z" fill="#C3937C"/>
<path d="M134.479 22.1737C134.165 22.1167 133.845 22.2061 133.581 22.4247C133.316 22.6432 133.125 22.9758 133.045 23.3589C132.964 23.7419 132.999 24.1488 133.142 24.5018C133.286 24.8549 133.529 25.1295 133.825 25.2733C135.346 26.0566 136.044 22.6002 134.545 22.4291C134.191 22.389 134.193 23.0774 134.545 23.1175C134.992 23.1681 134.83 24.0697 134.68 24.3843C134.443 24.8615 133.983 24.7475 133.732 24.3527C133.27 23.6263 133.813 22.7712 134.479 22.8747C134.83 22.9274 134.827 22.2412 134.479 22.1863V22.1737Z" fill="#C3937C"/>
<path d="M117.011 3.74501C116.867 3.33961 116.6 2.67662 116.673 2.22055C116.545 1.81938 116.622 1.72014 116.908 1.92706C117.15 1.90313 117.263 2.04389 117.246 2.34935C117.259 2.40683 117.284 2.45904 117.318 2.50088C117.353 2.54272 117.395 2.57276 117.441 2.58807C117.488 2.60338 117.536 2.60344 117.583 2.58825C117.629 2.57306 117.671 2.54312 117.706 2.50137C118.086 2.01574 118.475 1.50266 118.951 1.16483C119.351 0.693277 119.668 0.771397 119.901 1.3992C119.728 1.73514 119.521 2.04294 119.287 2.31557C119.134 2.51193 119.233 2.93422 119.482 2.90255C120.374 2.79064 121.219 2.7083 122.027 3.32484V2.73152C121.242 3.22992 120.393 3.55156 119.519 3.68167C119.462 3.687 119.407 3.71443 119.362 3.7602C119.318 3.80596 119.286 3.86781 119.271 3.93724C119.255 4.00667 119.258 4.08028 119.278 4.14794C119.297 4.2156 119.333 4.274 119.38 4.3151C119.703 4.41645 119.742 4.6466 119.497 5.00554C119.472 5.61786 119.213 5.74032 118.718 5.37082C118.185 5.1666 117.705 4.79171 117.324 4.28343C117.272 4.22001 117.202 4.18464 117.13 4.18498C117.057 4.18532 116.988 4.22135 116.936 4.28526C116.885 4.34916 116.856 4.43578 116.855 4.52635C116.855 4.61692 116.883 4.70412 116.933 4.76906C117.609 5.61364 119.238 6.84672 120.224 6.01059C121.069 5.28636 120.224 4.14407 119.658 3.72178L119.519 4.35521C120.489 4.20789 121.432 3.85065 122.304 3.29949C122.345 3.2687 122.379 3.2252 122.402 3.17322C122.426 3.12124 122.438 3.06254 122.438 3.00284C122.438 2.94313 122.426 2.88444 122.402 2.83246C122.379 2.78048 122.345 2.73698 122.304 2.70618C121.42 2.03685 120.486 2.07275 119.482 2.19522L119.676 2.78431C120.075 2.27756 121.168 0.907234 120.423 0.231573C119.436 -0.661566 117.888 1.26618 117.315 1.99463L117.777 2.14665C117.64 1.44143 117.055 0.189346 116.344 0.97269C115.722 1.6568 116.286 3.3544 116.543 4.07651C116.687 4.48191 117.162 4.1314 117.02 3.73023L117.011 3.74501Z" fill="#C3937C"/>
<path d="M117.721 2.9089C117.111 2.9089 116.43 3.15804 116.19 3.93294C115.95 4.70784 116.289 5.38772 116.896 5.60943C117.44 5.81001 118.159 5.65588 118.436 4.97599C118.495 4.8365 118.53 4.68315 118.539 4.52575C118.548 4.36836 118.53 4.21037 118.487 4.06192C118.444 3.91346 118.377 3.7778 118.29 3.66361C118.203 3.54941 118.098 3.4592 117.981 3.39875C117.643 3.23194 117.508 3.89916 117.834 4.06174C118.061 4.17576 118.003 4.61283 117.873 4.78808C117.655 5.07735 117.221 5.05834 116.949 4.91477C116.881 4.8817 116.821 4.82874 116.774 4.76041C116.726 4.69208 116.693 4.61043 116.676 4.52243C116.66 4.43443 116.66 4.34271 116.678 4.25512C116.696 4.16754 116.731 4.08669 116.78 4.01951C116.989 3.65846 117.398 3.59722 117.726 3.59722C117.799 3.59722 117.869 3.56096 117.921 3.49642C117.972 3.43188 118.001 3.34434 118.001 3.25307C118.001 3.16179 117.972 3.07425 117.921 3.0097C117.869 2.94516 117.799 2.9089 117.726 2.9089H117.721Z" fill="#C3937C"/>
<path d="M50.248 60.288C50.248 60.8853 50.104 61.4453 49.816 61.968C49.5387 62.4907 49.096 62.912 48.488 63.232C47.8907 63.552 47.1333 63.712 46.216 63.712H44.344V68H42.104V56.832H46.216C47.08 56.832 47.816 56.9813 48.424 57.28C49.032 57.5787 49.4853 57.9893 49.784 58.512C50.0933 59.0347 50.248 59.6267 50.248 60.288ZM46.12 61.904C46.7387 61.904 47.1973 61.7653 47.496 61.488C47.7947 61.2 47.944 60.8 47.944 60.288C47.944 59.2 47.336 58.656 46.12 58.656H44.344V61.904H46.12ZM51.2624 63.536C51.2624 62.64 51.4384 61.8453 51.7904 61.152C52.153 60.4587 52.6384 59.9253 53.2464 59.552C53.865 59.1787 54.553 58.992 55.3104 58.992C55.9717 58.992 56.5477 59.1253 57.0384 59.392C57.5397 59.6587 57.9397 59.9947 58.2384 60.4V59.136H60.4944V68H58.2384V66.704C57.9504 67.12 57.5504 67.4667 57.0384 67.744C56.537 68.0107 55.9557 68.144 55.2944 68.144C54.5477 68.144 53.865 67.952 53.2464 67.568C52.6384 67.184 52.153 66.6453 51.7904 65.952C51.4384 65.248 51.2624 64.4427 51.2624 63.536ZM58.2384 63.568C58.2384 63.024 58.1317 62.56 57.9184 62.176C57.705 61.7813 57.417 61.4827 57.0544 61.28C56.6917 61.0667 56.3024 60.96 55.8864 60.96C55.4704 60.96 55.0864 61.0613 54.7344 61.264C54.3824 61.4667 54.0944 61.7653 53.8704 62.16C53.657 62.544 53.5504 63.0027 53.5504 63.536C53.5504 64.0693 53.657 64.5387 53.8704 64.944C54.0944 65.3387 54.3824 65.6427 54.7344 65.856C55.097 66.0693 55.481 66.176 55.8864 66.176C56.3024 66.176 56.6917 66.0747 57.0544 65.872C57.417 65.6587 57.705 65.36 57.9184 64.976C58.1317 64.5813 58.2384 64.112 58.2384 63.568ZM66.0741 68.144C65.3488 68.144 64.6981 68.016 64.1221 67.76C63.5461 67.4933 63.0875 67.136 62.7461 66.688C62.4155 66.24 62.2341 65.744 62.2021 65.2H64.4581C64.5008 65.5413 64.6661 65.824 64.9541 66.048C65.2528 66.272 65.6208 66.384 66.0581 66.384C66.4848 66.384 66.8155 66.2987 67.0501 66.128C67.2955 65.9573 67.4181 65.7387 67.4181 65.472C67.4181 65.184 67.2688 64.9707 66.9701 64.832C66.6821 64.6827 66.2181 64.5227 65.5781 64.352C64.9168 64.192 64.3728 64.0267 63.9461 63.856C63.5301 63.6853 63.1675 63.424 62.8581 63.072C62.5595 62.72 62.4101 62.2453 62.4101 61.648C62.4101 61.1573 62.5488 60.7093 62.8261 60.304C63.1141 59.8987 63.5195 59.5787 64.0421 59.344C64.5755 59.1093 65.1995 58.992 65.9141 58.992C66.9701 58.992 67.8128 59.2587 68.4421 59.792C69.0715 60.3147 69.4181 61.024 69.4821 61.92H67.3381C67.3061 61.568 67.1568 61.2907 66.8901 61.088C66.6341 60.8747 66.2875 60.768 65.8501 60.768C65.4448 60.768 65.1301 60.8427 64.9061 60.992C64.6928 61.1413 64.5861 61.3493 64.5861 61.616C64.5861 61.9147 64.7355 62.144 65.0341 62.304C65.3328 62.4533 65.7968 62.608 66.4261 62.768C67.0661 62.928 67.5941 63.0933 68.0101 63.264C68.4261 63.4347 68.7835 63.7013 69.0821 64.064C69.3915 64.416 69.5515 64.8853 69.5621 65.472C69.5621 65.984 69.4181 66.4427 69.1301 66.848C68.8528 67.2533 68.4475 67.5733 67.9141 67.808C67.3915 68.032 66.7781 68.144 66.0741 68.144ZM74.0089 60.976V65.264C74.0089 65.5627 74.0782 65.7813 74.2169 65.92C74.3662 66.048 74.6115 66.112 74.9529 66.112H75.9929V68H74.5849C72.6969 68 71.7529 67.0827 71.7529 65.248V60.976H70.6969V59.136H71.7529V56.944H74.0089V59.136H75.9929V60.976H74.0089ZM78.74 58.08C78.3453 58.08 78.0147 57.9573 77.748 57.712C77.492 57.456 77.364 57.1413 77.364 56.768C77.364 56.3947 77.492 56.0853 77.748 55.84C78.0147 55.584 78.3453 55.456 78.74 55.456C79.1347 55.456 79.46 55.584 79.716 55.84C79.9827 56.0853 80.116 56.3947 80.116 56.768C80.116 57.1413 79.9827 57.456 79.716 57.712C79.46 57.9573 79.1347 58.08 78.74 58.08ZM79.844 59.136V68H77.604V59.136H79.844ZM89.7736 56.832C90.947 56.832 91.9763 57.0613 92.8616 57.52C93.7576 57.9787 94.4456 58.6347 94.9256 59.488C95.4163 60.3307 95.6616 61.312 95.6616 62.432C95.6616 63.552 95.4163 64.5333 94.9256 65.376C94.4456 66.208 93.7576 66.8533 92.8616 67.312C91.9763 67.7707 90.947 68 89.7736 68H85.8696V56.832H89.7736ZM89.6936 66.096C90.867 66.096 91.7736 65.776 92.4136 65.136C93.0536 64.496 93.3736 63.5947 93.3736 62.432C93.3736 61.2693 93.0536 60.3627 92.4136 59.712C91.7736 59.0507 90.867 58.72 89.6936 58.72H88.1096V66.096H89.6936ZM96.7624 63.536C96.7624 62.64 96.9384 61.8453 97.2904 61.152C97.653 60.4587 98.1384 59.9253 98.7464 59.552C99.365 59.1787 100.053 58.992 100.81 58.992C101.472 58.992 102.048 59.1253 102.538 59.392C103.04 59.6587 103.44 59.9947 103.738 60.4V59.136H105.994V68H103.738V66.704C103.45 67.12 103.05 67.4667 102.538 67.744C102.037 68.0107 101.456 68.144 100.794 68.144C100.048 68.144 99.365 67.952 98.7464 67.568C98.1384 67.184 97.653 66.6453 97.2904 65.952C96.9384 65.248 96.7624 64.4427 96.7624 63.536ZM103.738 63.568C103.738 63.024 103.632 62.56 103.418 62.176C103.205 61.7813 102.917 61.4827 102.554 61.28C102.192 61.0667 101.802 60.96 101.386 60.96C100.97 60.96 100.586 61.0613 100.234 61.264C99.8824 61.4667 99.5944 61.7653 99.3704 62.16C99.157 62.544 99.0504 63.0027 99.0504 63.536C99.0504 64.0693 99.157 64.5387 99.3704 64.944C99.5944 65.3387 99.8824 65.6427 100.234 65.856C100.597 66.0693 100.981 66.176 101.386 66.176C101.802 66.176 102.192 66.0747 102.554 65.872C102.917 65.6587 103.205 65.36 103.418 64.976C103.632 64.5813 103.738 64.112 103.738 63.568ZM110.79 60.976V65.264C110.79 65.5627 110.859 65.7813 110.998 65.92C111.147 66.048 111.393 66.112 111.734 66.112H112.774V68H111.366C109.478 68 108.534 67.0827 108.534 65.248V60.976H107.478V59.136H108.534V56.944H110.79V59.136H112.774V60.976H110.79ZM122.625 63.376C122.625 63.696 122.604 63.984 122.561 64.24H116.081C116.135 64.88 116.359 65.3813 116.753 65.744C117.148 66.1067 117.633 66.288 118.209 66.288C119.041 66.288 119.633 65.9307 119.985 65.216H122.401C122.145 66.0693 121.655 66.7733 120.929 67.328C120.204 67.872 119.313 68.144 118.257 68.144C117.404 68.144 116.636 67.9573 115.953 67.584C115.281 67.2 114.753 66.6613 114.369 65.968C113.996 65.2747 113.809 64.4747 113.809 63.568C113.809 62.6507 113.996 61.8453 114.369 61.152C114.743 60.4587 115.265 59.9253 115.937 59.552C116.609 59.1787 117.383 58.992 118.257 58.992C119.1 58.992 119.852 59.1733 120.513 59.536C121.185 59.8987 121.703 60.416 122.065 61.088C122.439 61.7493 122.625 62.512 122.625 63.376ZM120.305 62.736C120.295 62.16 120.087 61.7013 119.681 61.36C119.276 61.008 118.78 60.832 118.193 60.832C117.639 60.832 117.169 61.0027 116.785 61.344C116.412 61.6747 116.183 62.1387 116.097 62.736H120.305ZM129.172 59.008C130.228 59.008 131.082 59.344 131.732 60.016C132.383 60.6773 132.708 61.6053 132.708 62.8V68H130.468V63.104C130.468 62.4 130.292 61.8613 129.94 61.488C129.588 61.104 129.108 60.912 128.5 60.912C127.882 60.912 127.391 61.104 127.028 61.488C126.676 61.8613 126.5 62.4 126.5 63.104V68H124.26V59.136H126.5V60.24C126.799 59.856 127.178 59.5573 127.636 59.344C128.106 59.12 128.618 59.008 129.172 59.008ZM138.31 58.992C138.972 58.992 139.553 59.1253 140.054 59.392C140.556 59.648 140.95 59.984 141.238 60.4V59.136H143.494V68.064C143.494 68.8853 143.329 69.616 142.998 70.256C142.668 70.9067 142.172 71.4187 141.51 71.792C140.849 72.176 140.049 72.368 139.11 72.368C137.852 72.368 136.817 72.0747 136.006 71.488C135.206 70.9013 134.753 70.1013 134.646 69.088H136.87C136.988 69.4933 137.238 69.8133 137.622 70.048C138.017 70.2933 138.492 70.416 139.046 70.416C139.697 70.416 140.225 70.2187 140.63 69.824C141.036 69.44 141.238 68.8533 141.238 68.064V66.688C140.95 67.104 140.55 67.4507 140.038 67.728C139.537 68.0053 138.961 68.144 138.31 68.144C137.564 68.144 136.881 67.952 136.262 67.568C135.644 67.184 135.153 66.6453 134.79 65.952C134.438 65.248 134.262 64.4427 134.262 63.536C134.262 62.64 134.438 61.8453 134.79 61.152C135.153 60.4587 135.638 59.9253 136.246 59.552C136.865 59.1787 137.553 58.992 138.31 58.992ZM141.238 63.568C141.238 63.024 141.132 62.56 140.918 62.176C140.705 61.7813 140.417 61.4827 140.054 61.28C139.692 61.0667 139.302 60.96 138.886 60.96C138.47 60.96 138.086 61.0613 137.734 61.264C137.382 61.4667 137.094 61.7653 136.87 62.16C136.657 62.544 136.55 63.0027 136.55 63.536C136.55 64.0693 136.657 64.5387 136.87 64.944C137.094 65.3387 137.382 65.6427 137.734 65.856C138.097 66.0693 138.481 66.176 138.886 66.176C139.302 66.176 139.692 66.0747 140.054 65.872C140.417 65.6587 140.705 65.36 140.918 64.976C141.132 64.5813 141.238 64.112 141.238 63.568ZM146.674 68.112C146.269 68.112 145.933 67.9893 145.666 67.744C145.41 67.488 145.282 67.1733 145.282 66.8C145.282 66.4267 145.41 66.1173 145.666 65.872C145.933 65.616 146.269 65.488 146.674 65.488C147.069 65.488 147.394 65.616 147.65 65.872C147.906 66.1173 148.034 66.4267 148.034 66.8C148.034 67.1733 147.906 67.488 147.65 67.744C147.394 67.9893 147.069 68.112 146.674 68.112Z" fill="#C3937C"/>
</svg>
