<svg width="53" height="53" viewBox="0 0 53 53" fill="none" xmlns="http://www.w3.org/2000/svg">
<rect width="53" height="53" rx="8" fill="#C3937C"/>
<mask id="mask0_12_43" style="mask-type:alpha" maskUnits="userSpaceOnUse" x="10" y="12" width="33" height="29">
<rect x="10" y="12" width="33" height="29" fill="#0085FF"/>
</mask>
<g mask="url(#mask0_12_43)">
<path d="M14.125 36.1668C13.3687 36.1668 12.7214 35.9302 12.1828 35.4569C11.6443 34.9837 11.375 34.4147 11.375 33.7502V20.4585H14.125V33.7502H37.5V36.1668H14.125ZM19.625 31.3335C18.8687 31.3335 18.2214 31.0969 17.6828 30.6236C17.1443 30.1503 16.875 29.5814 16.875 28.9168V19.2502C16.875 18.5856 17.1443 18.0167 17.6828 17.5434C18.2214 17.0701 18.8687 16.8335 19.625 16.8335H38.875C39.6312 16.8335 40.2786 17.0701 40.8172 17.5434C41.3557 18.0167 41.625 18.5856 41.625 19.2502V28.9168C41.625 29.5814 41.3557 30.1503 40.8172 30.6236C40.2786 31.0969 39.6312 31.3335 38.875 31.3335H19.625ZM22.375 28.9168C22.375 28.2522 22.1057 27.6833 21.5672 27.2101C21.0286 26.7368 20.3812 26.5002 19.625 26.5002V28.9168H22.375ZM36.125 28.9168H38.875V26.5002C38.1187 26.5002 37.4714 26.7368 36.9328 27.2101C36.3943 27.6833 36.125 28.2522 36.125 28.9168ZM29.25 27.7085C30.3958 27.7085 31.3698 27.3561 32.1719 26.6512C32.974 25.9463 33.375 25.0904 33.375 24.0835C33.375 23.0766 32.974 22.2206 32.1719 21.5158C31.3698 20.8109 30.3958 20.4585 29.25 20.4585C28.1042 20.4585 27.1302 20.8109 26.3281 21.5158C25.526 22.2206 25.125 23.0766 25.125 24.0835C25.125 25.0904 25.526 25.9463 26.3281 26.6512C27.1302 27.3561 28.1042 27.7085 29.25 27.7085ZM19.625 21.6668C20.3812 21.6668 21.0286 21.4302 21.5672 20.9569C22.1057 20.4837 22.375 19.9147 22.375 19.2502H19.625V21.6668ZM38.875 21.6668V19.2502H36.125C36.125 19.9147 36.3943 20.4837 36.9328 20.9569C37.4714 21.4302 38.1187 21.6668 38.875 21.6668Z" fill="#FBF8F1"/>
</g>
</svg>
