<svg width="60" height="54" viewBox="0 0 60 54" fill="none" xmlns="http://www.w3.org/2000/svg">
<rect width="60" height="53.4812" rx="8" fill="#C3937C"/>
<rect width="60" height="53.4812" rx="8" fill="#C3937C"/>
<path d="M39.7191 38.9648C39.7191 41.7273 36.928 43.9648 33.4889 43.9648C30.0498 43.9648 27.2587 41.7273 27.2587 38.9648C27.2587 36.2023 30.0498 33.9648 33.4889 33.9648C36.928 33.9648 39.7191 36.2023 39.7191 38.9648Z" fill="white"/>
<path fill-rule="evenodd" clip-rule="evenodd" d="M39.7191 13.9648V38.9648H37.2271V13.9648H39.7191Z" fill="white"/>
<path d="M37.2271 13.5148C37.2274 12.9371 37.4272 12.3773 37.7925 11.9307C38.1577 11.484 38.666 11.1781 39.2307 11.0648L46.707 9.56485C47.0684 9.49238 47.4413 9.50123 47.7989 9.59077C48.1565 9.6803 48.4898 9.84828 48.7749 10.0826C49.06 10.317 49.2897 10.6118 49.4475 10.9459C49.6053 11.28 49.6873 11.6451 49.6875 12.0148V16.4648L37.2271 18.9648V13.5148Z" fill="white"/>
<path fill-rule="evenodd" clip-rule="evenodd" d="M10.3125 35.7664C10.3125 35.4348 10.4438 35.1169 10.6775 34.8825C10.9111 34.6481 11.2281 34.5164 11.5585 34.5164H20.2809C20.6113 34.5164 20.9283 34.6481 21.1619 34.8825C21.3956 35.1169 21.5269 35.4348 21.5269 35.7664C21.5269 36.0979 21.3956 36.4158 21.1619 36.6502C20.9283 36.8847 20.6113 37.0164 20.2809 37.0164H11.5585C11.2281 37.0164 10.9111 36.8847 10.6775 36.6502C10.4438 36.4158 10.3125 36.0979 10.3125 35.7664ZM10.3125 25.7664C10.3125 25.4348 10.4438 25.1169 10.6775 24.8825C10.9111 24.6481 11.2281 24.5164 11.5585 24.5164H30.2492C30.5797 24.5164 30.8966 24.6481 31.1303 24.8825C31.364 25.1169 31.4953 25.4348 31.4953 25.7664C31.4953 26.0979 31.364 26.4158 31.1303 26.6502C30.8966 26.8847 30.5797 27.0164 30.2492 27.0164H11.5585C11.2281 27.0164 10.9111 26.8847 10.6775 26.6502C10.4438 26.4158 10.3125 26.0979 10.3125 25.7664ZM10.3125 15.7664C10.3125 15.4348 10.4438 15.1169 10.6775 14.8825C10.9111 14.6481 11.2281 14.5164 11.5585 14.5164H30.2492C30.5797 14.5164 30.8966 14.6481 31.1303 14.8825C31.364 15.1169 31.4953 15.4348 31.4953 15.7664C31.4953 16.0979 31.364 16.4158 31.1303 16.6502C30.8966 16.8847 30.5797 17.0164 30.2492 17.0164H11.5585C11.2281 17.0164 10.9111 16.8847 10.6775 16.6502C10.4438 16.4158 10.3125 16.0979 10.3125 15.7664Z" fill="white"/>
</svg>
