<svg width="60" height="54" viewBox="0 0 60 54" fill="none" xmlns="http://www.w3.org/2000/svg">
<rect width="60" height="53.4812" rx="8" fill="#C3937C"/>
<path d="M37.5 9.24072C38.163 9.24072 38.7989 9.50411 39.2678 9.97296C39.7366 10.4418 40 11.0777 40 11.7407V41.7407C40 42.4038 39.7366 43.0396 39.2678 43.5085C38.7989 43.9773 38.163 44.2407 37.5 44.2407H22.5C21.837 44.2407 21.2011 43.9773 20.7322 43.5085C20.2634 43.0396 20 42.4038 20 41.7407V11.7407C20 11.0777 20.2634 10.4418 20.7322 9.97296C21.2011 9.50411 21.837 9.24072 22.5 9.24072H37.5ZM22.5 6.74072C21.1739 6.74072 19.9021 7.26751 18.9645 8.20519C18.0268 9.14287 17.5 10.4146 17.5 11.7407V41.7407C17.5 43.0668 18.0268 44.3386 18.9645 45.2763C19.9021 46.2139 21.1739 46.7407 22.5 46.7407H37.5C38.8261 46.7407 40.0979 46.2139 41.0355 45.2763C41.9732 44.3386 42.5 43.0668 42.5 41.7407V11.7407C42.5 10.4146 41.9732 9.14287 41.0355 8.20519C40.0979 7.26751 38.8261 6.74072 37.5 6.74072H22.5Z" fill="white"/>
<path d="M30 41.7407C30.663 41.7407 31.2989 41.4773 31.7678 41.0085C32.2366 40.5396 32.5 39.9038 32.5 39.2407C32.5 38.5777 32.2366 37.9418 31.7678 37.473C31.2989 37.0041 30.663 36.7407 30 36.7407C29.337 36.7407 28.7011 37.0041 28.2322 37.473C27.7634 37.9418 27.5 38.5777 27.5 39.2407C27.5 39.9038 27.7634 40.5396 28.2322 41.0085C28.7011 41.4773 29.337 41.7407 30 41.7407Z" fill="white"/>
</svg>
