<svg width="60" height="54" viewBox="0 0 60 54" fill="none" xmlns="http://www.w3.org/2000/svg">
<rect width="60" height="53.4812" rx="8" fill="#C3937C"/>
<path d="M43.7504 9.23858C42.7559 9.23858 41.802 9.63367 41.0988 10.3369C40.3955 11.0402 40.0004 11.994 40.0004 12.9886C40.0004 13.9831 40.3955 14.937 41.0988 15.6402C41.802 16.3435 42.7559 16.7386 43.7504 16.7386C44.745 16.7386 45.6988 16.3435 46.4021 15.6402C47.1053 14.937 47.5004 13.9831 47.5004 12.9886C47.5004 11.994 47.1053 11.0402 46.4021 10.3369C45.6988 9.63367 44.745 9.23858 43.7504 9.23858ZM37.5004 12.9886C37.5002 11.5222 38.0157 10.1024 38.9566 8.97761C39.8975 7.85284 41.2039 7.09474 42.6473 6.83592C44.0907 6.5771 45.5792 6.83406 46.8522 7.56183C48.1253 8.28961 49.102 9.44185 49.6113 10.817C50.1206 12.1921 50.1302 13.7025 49.6384 15.084C49.1466 16.4655 48.1847 17.63 46.9209 18.3739C45.6572 19.1178 44.1721 19.3937 42.7256 19.1532C41.279 18.9127 39.963 18.1713 39.0079 17.0586L22.2129 24.8586C22.599 26.0822 22.599 27.395 22.2129 28.6186L39.0079 36.4186C40.0175 35.2444 41.4271 34.4868 42.9634 34.2927C44.4997 34.0986 46.0534 34.4817 47.3234 35.3678C48.5933 36.2539 49.4891 37.58 49.8371 39.0889C50.1851 40.5978 49.9605 42.1822 49.2069 43.535C48.4533 44.8878 47.2243 45.9127 45.7581 46.411C44.2919 46.9093 42.693 46.8455 41.2711 46.2321C39.8493 45.6187 38.7057 44.4992 38.0622 43.0908C37.4187 41.6823 37.3209 40.085 37.7879 38.6086L20.9929 30.8086C20.1615 31.7775 19.0533 32.4686 17.8174 32.7888C16.5814 33.109 15.2771 33.0431 14.0798 32.5998C12.8824 32.1565 11.8496 31.3572 11.1202 30.3093C10.3908 29.2614 9.99976 28.0153 9.99976 26.7386C9.99976 25.4618 10.3908 24.2157 11.1202 23.1679C11.8496 22.12 12.8824 21.3207 14.0798 20.8774C15.2771 20.4341 16.5814 20.3681 17.8174 20.6884C19.0533 21.0086 20.1615 21.6997 20.9929 22.6686L37.7879 14.8686C37.5967 14.2602 37.4998 13.6262 37.5004 12.9886ZM16.2504 22.9886C15.2559 22.9886 14.302 23.3837 13.5988 24.0869C12.8955 24.7902 12.5004 25.744 12.5004 26.7386C12.5004 27.7331 12.8955 28.687 13.5988 29.3902C14.302 30.0935 15.2559 30.4886 16.2504 30.4886C17.245 30.4886 18.1988 30.0935 18.9021 29.3902C19.6053 28.687 20.0004 27.7331 20.0004 26.7386C20.0004 25.744 19.6053 24.7902 18.9021 24.0869C18.1988 23.3837 17.245 22.9886 16.2504 22.9886ZM43.7504 36.7386C42.7559 36.7386 41.802 37.1337 41.0988 37.8369C40.3955 38.5402 40.0004 39.494 40.0004 40.4886C40.0004 41.4831 40.3955 42.437 41.0988 43.1402C41.802 43.8435 42.7559 44.2386 43.7504 44.2386C44.745 44.2386 45.6988 43.8435 46.4021 43.1402C47.1053 42.437 47.5004 41.4831 47.5004 40.4886C47.5004 39.494 47.1053 38.5402 46.4021 37.8369C45.6988 37.1337 44.745 36.7386 43.7504 36.7386Z" fill="white"/>
</svg>
